<mxfile host="app.diagrams.net" modified="2022-11-14T07:35:35.745Z" agent="5.0 (Windows NT 10.0; Win64; x64) AppleWebKit/537.36 (KHTML, like Gecko) Chrome/107.0.0.0 Safari/537.36" etag="ChGmy2h62pF7e0DxjfEO" version="20.3.3" type="github" pages="2">
  <diagram id="dugOMgqlYxfZfskAlRjP" name="Page-1">
    <mxGraphModel dx="1102" dy="557" grid="1" gridSize="10" guides="1" tooltips="1" connect="1" arrows="1" fold="1" page="1" pageScale="1" pageWidth="850" pageHeight="1100" math="0" shadow="0">
      <root>
        <mxCell id="0" />
        <mxCell id="1" parent="0" />
        <mxCell id="WvUdMenpFtk8qT5MPHIg-2" value="&lt;h1&gt;Terminal keys initial setup&lt;/h1&gt;&lt;p&gt;There are two RSA key pairs involve in IPEK keys transfer.&lt;/p&gt;&lt;p&gt;&lt;br&gt;&lt;/p&gt;&lt;p&gt;&lt;b&gt;Mosambee &lt;/b&gt;-key pair Mosambee public and private key pair.&lt;/p&gt;&lt;p&gt;mosambee public key will be share with Manufacturer to load to Mosambee assign device. This key will be same across all Mosambee devices.&lt;/p&gt;&lt;p&gt;&lt;b&gt;This can be loaded via&amp;nbsp;&lt;/b&gt;&lt;/p&gt;&lt;p&gt;&lt;b&gt;1. TMS update&amp;nbsp;&lt;/b&gt;&lt;/p&gt;&lt;p&gt;&lt;b&gt;2. windows tool physical tool&lt;/b&gt;&lt;/p&gt;&lt;p&gt;&lt;b&gt;3.Android API&lt;/b&gt;&lt;/p&gt;&lt;p&gt;Once these keys are loaded must not be replaced or changed.&lt;/p&gt;&lt;p&gt;&lt;b&gt;key generation&lt;/b&gt;-mosambee uses a java utility to generate the key pair and public key is shared with manufacturer and private key is stored at server level which is used to generate envelop.&lt;/p&gt;&lt;p&gt;&lt;br&gt;&lt;/p&gt;&lt;p&gt;&lt;br&gt;&lt;/p&gt;&lt;p&gt;&lt;b&gt;Kozen (Manufacturer)&lt;/b&gt;- Kozen public and private key pair.&lt;/p&gt;&lt;p&gt;These keys should be unique for each terminal.&lt;/p&gt;&lt;p&gt;These keys must generated one time only and stored in memory with checksum.&lt;/p&gt;&lt;p&gt;These keys must not be changed unless terminal goes into tempered&amp;nbsp;fail safe state.&amp;nbsp;&lt;/p&gt;&lt;p&gt;key generation-Kozen team should have the inbuild key generation logic which should generate keys one time only it can be from SDK or from system package.&amp;nbsp;&amp;nbsp;&lt;/p&gt;&lt;p&gt;This can be loaded via&amp;nbsp;&lt;/p&gt;&lt;p&gt;&lt;b&gt;1. TMS update&amp;nbsp;&lt;/b&gt;&lt;/p&gt;&lt;p&gt;&lt;b&gt;2. windows tool physical tool&lt;/b&gt;&lt;/p&gt;&lt;p&gt;&lt;b&gt;3.Android API&lt;/b&gt;&lt;/p&gt;&lt;p&gt;kozen public keys of all devices must shared with mosambee via mail or can be fetched from an secured API which should not available for other or open.&lt;/p&gt;&lt;p&gt;Mosambee public key will be shared with kozen to load into device.&lt;/p&gt;&lt;p&gt;kozen terminal will have the kozen public ,private and Mosambee public keys.&lt;/p&gt;&lt;p&gt;its the initial setup of terminal this can be done via TMS or can clubbed with the Sysytem package.&lt;/p&gt;&lt;p&gt;&lt;br&gt;&lt;/p&gt;" style="text;html=1;strokeColor=none;fillColor=none;spacing=5;spacingTop=-20;whiteSpace=wrap;overflow=hidden;rounded=0;" vertex="1" parent="1">
          <mxGeometry x="30" y="20" width="810" height="780" as="geometry" />
        </mxCell>
      </root>
    </mxGraphModel>
  </diagram>
  <diagram id="yuX63vNcph0qRKN5VG8M" name="Page-2">
    <mxGraphModel dx="1102" dy="557" grid="1" gridSize="10" guides="1" tooltips="1" connect="1" arrows="1" fold="1" page="1" pageScale="1" pageWidth="850" pageHeight="1100" math="0" shadow="0">
      <root>
        <mxCell id="0" />
        <mxCell id="1" parent="0" />
        <mxCell id="m3LB1vSfUi7DzY9QzDPE-1" value="" style="verticalLabelPosition=bottom;verticalAlign=top;html=1;shadow=0;dashed=0;strokeWidth=1;shape=mxgraph.android.phone2;strokeColor=#c0c0c0;" vertex="1" parent="1">
          <mxGeometry x="60" y="130" width="230" height="440" as="geometry" />
        </mxCell>
        <mxCell id="m3LB1vSfUi7DzY9QzDPE-2" value="Kozen terminal" style="text;html=1;strokeColor=none;fillColor=none;align=center;verticalAlign=middle;whiteSpace=wrap;rounded=0;" vertex="1" parent="1">
          <mxGeometry x="80" y="50" width="170" height="30" as="geometry" />
        </mxCell>
        <mxCell id="m3LB1vSfUi7DzY9QzDPE-3" value="&lt;h1&gt;Terminal keys&lt;/h1&gt;&lt;div&gt;Stored in secured location&lt;/div&gt;&lt;p&gt;Mosambee public key&lt;/p&gt;&lt;p&gt;Kozen private key&lt;/p&gt;&lt;p&gt;kozen public key&lt;/p&gt;&lt;p&gt;&lt;br&gt;&lt;/p&gt;&lt;p&gt;KOZEN SDK&lt;/p&gt;&lt;p&gt;function to accept the envelop.&lt;/p&gt;" style="text;html=1;strokeColor=none;fillColor=none;spacing=5;spacingTop=-20;whiteSpace=wrap;overflow=hidden;rounded=0;" vertex="1" parent="1">
          <mxGeometry x="90" y="200" width="190" height="280" as="geometry" />
        </mxCell>
        <mxCell id="3citb5tyRbfSLB1Omx1e-1" value="" style="outlineConnect=0;dashed=0;verticalLabelPosition=bottom;verticalAlign=top;align=center;html=1;shape=mxgraph.aws3.android;fillColor=#96BF3D;gradientColor=none;" vertex="1" parent="1">
          <mxGeometry x="500" y="110" width="140" height="150" as="geometry" />
        </mxCell>
        <mxCell id="3citb5tyRbfSLB1Omx1e-2" value="Mosambee SDK" style="text;html=1;strokeColor=none;fillColor=none;align=center;verticalAlign=middle;whiteSpace=wrap;rounded=0;" vertex="1" parent="1">
          <mxGeometry x="490" y="50" width="160" height="30" as="geometry" />
        </mxCell>
        <mxCell id="3citb5tyRbfSLB1Omx1e-3" value="&lt;h1&gt;&lt;p style=&quot;font-size: 12px;&quot; class=&quot;MsoNormal&quot;&gt;ENVELOP generated from mosambee ,kozen team need to develop a function or method to accept the same.&lt;/p&gt;&lt;p style=&quot;font-size: 12px;&quot; class=&quot;MsoNormal&quot;&gt;Generally manufacturer provide a API in their SDK to send the envelop it uses the same logic to decrypt it which is already shared in earlier document.&lt;/p&gt;&lt;/h1&gt;" style="text;html=1;strokeColor=none;fillColor=none;spacing=5;spacingTop=-20;whiteSpace=wrap;overflow=hidden;rounded=0;" vertex="1" parent="1">
          <mxGeometry x="370" y="270" width="440" height="100" as="geometry" />
        </mxCell>
        <mxCell id="3citb5tyRbfSLB1Omx1e-4" value="" style="shape=image;verticalLabelPosition=bottom;labelBackgroundColor=default;verticalAlign=top;aspect=fixed;imageAspect=0;image=data:image/png,iVBORw0KGgoAAAANSUhEUgAAAmUAAACeCAYAAABzRX3UAAAgAElEQVR4nO2db2hUWZr/v/6Yt5rEmhdLUAlVNbDSLmlMtJtsKXTAVE3wxchEU9FBAjbaVS1Ct5KsiTIsm/Rs1TrdIJoY6UCQMVW2ARtWq5MIabDuBEeNpJiIvUxuEdy0r1JWYmDf3t+LcE7fe+6ppBKjlt3fDwStW+eeP895znOee86t82ywLMsCIYQQQgh5q/y/t10BQgghhBBCp4wQQgghpCSgU0YIIYQQUgLQKSOEEEIIKQHolBFCCCGElAB0ygghhBBCSgCtUxaNRrFhwwbtn2EYAIDOzk55LRwOu/LYvHkzNmzYgEwmg2w2K9Mmk0ltRfx+PzZs2IB4PO5Ir/6FQiEAQCaTkdcymUzBBuZyOXR2dsr8N2zYAL/fj2g0imw260hrb5OaNpfLFSdRQgghhJA1oHXKVGdFx8TEhPz/jRs3pLMmyOfzAIDFxUV4vV74fD4AwLfffqstzzRNAEAwGMTz589XLH9xcVH7fzuZTAa/+c1v8MUXX8j8AcA0TfT29sLn8yGVSmnbpKYNhUJ0zAghhBDy2lh2+zIYDMKyLMdfIBBwpBHOVldX17IFNTc3A1hy4FTu3r0r86qurnZ8l06nHeUPDw+v0KSf+P3vf498Po+KigrcuXNH5pFIJFBRUQEA+MMf/uBytkS75+bmEIlEAACPHj2S9SSEEEIIWW9e+Z2y48ePo6KiAiMjI8uusB06dEj+3746BQBff/01gJ8ct/UgmUzK1bG//OUvaGxslN+Fw2H09PQAWFrR+9vf/qbNw+PxyHQA8OzZs3WrHyGEEEKInXV50f/f/u3fAAAXLlwomKa6ulquqt2+fVtez2azePToEQCn4/aq3Lt3T/7f7pAJ9u3bJ/8/NTVVMB9uWRJCCCHkTbCsUzYyMuJ46V33Qj8AHDt2DBUVFejt7V12tUyshNlf9l9u6xIA9uzZ46jDci/12xH1CAaD2u89Hs+KeeRyOZw/f15+rqurK6psQt5lcrlcUe+Vkp8HxdpUQt4F3nX7tS4rZR6Pp6jVMrESls/n5Rbm999/D2B9ty5fFeGM/vrXv0Zvby8AIBKJIBAIIJlMan8V6vf70dnZiVAoJP+SySSSySSi0agj/76+PsTjcQBLDqowimo69Z5oNIrOzk55zTAMh6OcSqUQCoUQDoflCl88HnfdJ8oV1zKZjKyzqJe4t7OzU16zt62vr0+mEemAn37tGo1GHdvU2WzWUVd7mXYn3d6GTCbjSNfX1yfblUwmXXWxy1/86jcajcq8RP3i8bgsM5fLIRqNOuqRSqXkffaVUlEXgShL7YNoNCr70l4ncS2VSkkZ2fvJLmtBOBx2GBiRn/3Xw/Y2iPvt6ew/wrH3YS6Xc8hRtP/p06cYGhpylCnqLfpU1N8ue/FdJpNxyNcubx26fjIMw9UHujEgZC3y1+Vl7wMhM5HO7pCoeamyyWQyrrxF3wlZ53I5rf6IPrLLSdceVX/WUw66vACgvb3d1df2cSfqW2jMiXqLdDrZqujqouqmkJsq71Qq5RonOrsRDoelLbDL1l6mWg97u0UfZDIZqe92O2LvT/FZpz/hcFiOQZ0OraSzhWyZ0Du7HuhsEuC2IyJdZ2envL4aW6uWo5tDdPepulHsfCHaa59rdP0OrGy/hE7ZbaPdNoixrpsbdKxmrBWFpSEYDFoArGAwqPvakSYWi1mWZVlzc3NWRUWFBcCam5uzAFgArHQ67bjP5/NZAKxIJOJINzk5KdOk0+mC9xebprm5WX6vw162aINok/2vtrbWunLlSkE5FJKNIBaLWbW1tbJ9c3NzVnNzs0wTi8WsdDptRSIR686dO9r8JicnrUgkYlmWZXV0dFh37tyxTNO0rly54mifKCORSMg2maYp7xNympubsyKRiKxDOp2W6QVXrlwp2O5EImElEglrcnLS6ujocOQv6mdZllVbWyvv6ejosJqbm2Ud7WXW1tZapmlapmlazc3Nso6Tk5OOdOl02iW3QnK3rCUdME3Tmpubk3W5cuWKFYlEHHorZOTz+Rwyu3PnjkMukUjE0Sa1vMnJSVl/FdM0ZR+K+0T+d+7ckXKMRCJSRnfu3LGam5sd/WC/V+Rnv0fIRKQT+qZeF+jkqOpDMBi0JicnHfoi6itkFQwGrdraWmtubs5xvypvHbp+Ev8K2ejGwJUrV6xEIiHTi7aqeensmBiXou26vFTZiLbOzc3JPBOJhOwfocM6/bHrvmXpx7ROf9ZTDmpeArt8dDZB1L3QmLPrhk62OnR1KdRPdv0V9bGn1dkN0XbTNGVaXb+o9dDZQiFTezlqf87NzVlzc3OOPIW85ubmXLbFrkPF6KwujSg/EokUHN+ibYXsiGma2nG7Wlurk5vuPlU3ip0vdHONrt91dVF1VNhc0X7LWrL9ant1c4OO1Yy1Yli3w2Ptq2X9/f0F04kVsdHR0RW3Ll+Fjz76SP5fPa4DgMOTVrc47b86ffjwIU6cOPFKdTl9+rR8Urh79y6OHj3q+H5wcBDV1dXy3Tf7U1JnZyfu37+PvXv3AgB++9vfYmpqCl6v11UvuwzLysrk/w3DwMTEBLZv3w4A+PLLL3HmzBnHvWNjY+jr65NPC7du3UJZWZk8N87On//8Z4TDYVRXV2NiYgLJZBITExMIBALI5/PYtGkTAOcWsWmaOHv2rJQDAMzMzMAwDPh8Pni9XgwNDUnZeDwel06ov/x98uQJDMMo+CRimia8Xi88Ho+sy4kTJ1BVVSXTeDweeL1eAJC/yC0rK4NhGLh9+7bcsk4mk9i/f7+jTdPT04jH4/LpaGRkBDt37kQ8Hnfp3IULF2R/1dTUoK+vDxcvXkRTUxNevnwp+6uqqkoe8XL79m1cvnxZ/hBGYBgGpqamsH//fgDAw4cPpaxUGXk8Hpw8eRLj4+MAlp5MDcNY1ZZVLpfDn/70J1y/fh0AUFlZidHRURiGIWUHAP/+7//uGvuqvO1P1GIVQO2nTCaDXbt2AVh6H3RiYkI7Br7//nvs3r0bAHDw4EE8ffpU2+fA0lO2/Um8ra3N8b0uLxWv1wvDMNDf348DBw4AAAYGBtDU1CS/93q9Wv0xTRP379+XKxC69qj6s55y0OVVLJs3b5b/V8ecqhs62dpXTESf6+qi6mY2m8XCwgJ27twp88pms/D5fDhw4IBcvdDZDdF2ACgvLwfgHteF6iHskrB7+Xxe2on5+Xltf3o8HszOziKVSsl3p4W8/va3v8l5T6dDhXTWji6N3T5u3LgRgNsmAYXtiKiPTt9XsrW6ctQ5RHefqhvFzhe6uWal+UKg6uiOHTtw8eJFZLNZab/8fj9qamocdls3N6i6LOq6XmMNWOcT/cW7ZVevXi2YRmxhmqaJc+fOAXg9W5f2F/k/++wzh7D7+vpw9uxZAEsO2GocwuW2LwuxZcsWvHjxArlcDgMDA9ofHiwsLMj/d3d3Y3h4GMPDw+ju7sbCwgK2bNlSVP1EGWKiWFxclBPy7OwsDMNAWVmZYzLdvn07zp07h61btzr6YtOmTWhqanJcS6VSOHjwoCzL6/Xi2bNnKC8vRy6Xw4kTJzA4OIjOzk5MT08DWHIiPvroI1RXVzsGbDabxfj4OObn52X/iAG6VsQSN1Dce4P2+06fPi0/j4+P48WLF5idnUUul8O3337r6reBgQHU1dXh448/drSrqakJXV1dju3FbDYr9aysrEzKbHFxEfv27cPMzAzi8Thu3rwp7xFtaGhocBi/8fFxLCws4Nq1a6tup47BwUGt821HTEbAkiG/ceMGxsfHHVsMjY2NePz4MWZnZwvmU11dLXV7eHgY1dXVrvovLi46HDkA2jEwPz/v0GNAL4tYLIa6ujrcvn274DaELi/ALZsnT55gYWHB0R+6Mu36AyxNPh9++CG2bt2K8+fPLzumhf78z//8z7rJQSfTlRgbG0NnZyeqqqqWtZF23dARDocdfV5sXTo6OvD55587rg0NDeHQoUNoampynHlZyG50dHRIWw84+6XYely8eNG1Xaz2JwD8+OOPmJqawvz8vBy/mUwGU1NTGB0dlddUHSo0fouxZcJuiv5RbdJyduRVUMspNIesRLHzhW6uAYqfL+w62tjYiFgsho6ODsciweeff6492ss+N6i6DKzPWLOzqhf9N2zY4GiEilgtsx/UqmL/FaZIt9yvLtUX/e1PbYXS9PX1wev1IpFIAFg6Y8ye5pNPPkE+n4fP53MceVEM4XDYdXabZVlSoQrxu9/9DufPn0d9fb3ru8OHD+Px48eOaAn2lbIdO3Y4HKtt27Zpy8jlcvj0009x/fp1x9NUW1sbWltbMTIygtnZWYyNjSEUCuHBgwdIJpPweDwIBAIOp6O8vBwffPCB44kTgFzdAZZW/aqqqtDW1oajR49iaGgI1dXV6OnpQXd3t3RUBwcHsbCwgHg8jvLycrliUV9fj7a2Npw6dQrj4+PYtm2bbKdoj9o++7X33nsPgUDAUb+2tja0tbVp7y9EMplEWVmZdDA8Hg/a2trwxRdfYGBgALOzs5ifn5cyE8Y5EAggEAigoaEBz58/R1lZGXbs2AGv14uamhq54tXf34/W1lYAS47o2NgYuru7cfnyZfzpT3+SR6+0tbVh165dqKyslKvIwih/8803jjZ2d3fL8WOXi67NQraibYFAwDHJHj58GG1tbVqnRNwTi8Vw5MgRec3r9aKtrc01IZ88eVI+bOnQrZSpdd6+fTvGxsakvLxer3YM2J9sZ2ZmUFlZqW1/dXU1AoEA9u/fX/BYG11eOtmcOHEC3d3dGB0dlXKwP/CJVRO7/gBLT+LV1dX44IMP8OLFC217VP35p3/6p3WTg06mK1FfX4/u7m45ngD3mNPphoq6ulCoLqpuzs/P48iRI7h69So+++wzAEuO4sjICPr7+2GaJnK5XEG7EY1GcfbsWZmf2i+F6lFVVYVAICA/NzY2oqenB8eOHXOsrNj7U6QTuiJWnoT+NDQ0yGuqDhWyUyvZskwmg8HBQcccptqk5eyIYGxsTOq7XYbL2Vq1HN0cortPpdj5QjfXrDRfCHQ6Wl1djWQyiVu3bjnS1dfXOxaV1LlBt1K2HmPNzq90F4vJxL4kbOfYsWO4efMmHj16hIqKCldnA0tnm4mXS2tra11PYbp7VIpJEw6HsWXLFly6dAmjo6MyykBtbS0OHjyIY8eOOZRFtEn8u56IFwvF8R8qly9fRigUkqtjdnK5HC5evAhgaQBdv34d2WxWbsHG43G0tbXh008/xaNHj3DkyBHU1NSgu7sb4XAYO3fuxNjYGHp6euD1eqWCiRckk8kk/v73vyOfz8tVsKNHj+LTTz/F5s2bpUORyWTkFg0A7N69W046jx8/xhdffIFUKoWpqSk8fvwYp06dArCkmMJwZLNZdHR04OTJk7h69apUXnvdotEoXrx4gaNHj2LTpk0yXXl5uWMJ/rPPPpMDyT5xCE6fPi3bKtqQTCZlmXV1ddi4cSNaWloQDAZx69YtxGIxjIyMYGFhAaZp4tSpU3J1R8isu7sbmUwGfX19qKiogGmaCAQCqKysRDQaxV//+lcAPz293rx5Ew8fPgTw09iKx+OYmZnB0aNHkc1m0d/fj3w+j6qqKni9XnR0dODy5ctSP3ft2iX1QhgD0VdfffUVQqEQGhoaYJqmXA0KhUIoLy+Hz+eTcnjw4IG8fzUPJNXV1Thw4ADi8Th27NiBa9euYfPmzS5bIQy1QJV3IBBwHQCt9pPYNujs7MTExARisRi2bNniGgPbt29He3s7ampqpGx1fa6OASH/6elpDA4OorKyEocOHXLlpZJKpeRxPsePHwcAnDlzBtFoFDU1NZiYmEBPTw/6+/sd+gMsOX2dnZ1yW0bXnoWFBYf+7N27V/4g51XloJPpWtCNObtutLW1uWQbDoddL23r6qLqptCTeDwutxtrampkudu2bcPQ0BBOnDjhshv/+7//i2QyKVdahoeHEY/HHf2ik8ni4qLD3iSTSfT19WFhYcGhP2p/2u3BixcvEAgEMD4+LuVVXl6OQCCg1SGdzqro0nz00Ufw+XwIhUJobW3F9u3bXTYpHA5r7YiQdXl5OVpbW+H1evH8+fOibG0wGHSVo5tDdPqi6sYPP/xQ1Hxhf8ARc41uvtDtQqk6Ciw9vGSzWZe829rapFOWyWRcc4NOl9d7rG2wLMta1R2EkJ81hmFgfHxc6+iSnx/iYZCQnwPvuv1a13fKCCHvPpWVlTyT7xdEodUZQt5F3nX7xZUyQgghhJASgCtlhBBCCCElAJ0yQgghhJASgE4ZIYQQQkgJQKeMEEIIIaQEoFNGCCGEEFIC0Cl7Q4hQO4T8XFivkC2k9LGH7CHk50Cp2i+tUxaNRhGNRuXJ4NlsFtFoFOFwWDbEMAx5TQxWEXrAfuKtYRiOz7q87GGFMpkMUqmUK+9cLodoNIpQKCRP5Y3H466YZOLeaDRasDyRV2dnpwz509fX58prrXLQ5fX06VNHEHTxnWh7NBqV99vlIQL0ijqIOHypVErKejljqdbFHuZGyMh+3Y4axFlcs9dXfBb5C9na5aaTpT1chQjdFY/H0dnZKftX15863bDLUDi+Ot1YThbimi5NOByWuqnW3S6fVCrlqLs9fxG42H6/iKYg0PW7+Czy1ZWt3ge4x10mk0FnZyei0ajDGKl1zuVy6OzsRGdnp6ybbuwBkFE5RP6qjgrZiX4Rn+3tFfeq40pHsWNN1bVi7tPJWsjbnvdydk+MH53u2fUolUoVHCelYL909RoaGnIErV7OftnlkcvlkEwmZXnLjWMdxdgNe//ZCYfDjgfhQnMI7ddPdVV1fzk7FY1GHSHG1H7XjSm7rRJtVe8Dirdf6hylS1eM/YrH4462qCw3tsW4EuUVa88KYilcuXLFSiQSlmVZVm1trTU3N2c1Nzdbpmlac3NzVm1trfzOsizrzp07VkdHh2VZlhUMBh15maZpXblyxbIXo8tLd5/IOxaLWZZlWZFIxJqcnLQsy7LS6bQjXUdHh5VOp63JyUmrubnZkZeuvObmZpmXZVnW5OSkFYlEZF537txZsxx0eYk6i7bY2yz+tdddlYe4N5FISFmL+icSCUe+dnR1UeshiEQisi2WZcn22uWZSCSsK1euWJa1JHvTNGU9IpGIlU6nrbm5OWtubs4hG50sY7GY7Ee7/ERek5OT2v7U6YaQ1507d2R7dbqxkix0aUR/m6Ypy1HrLmhubnb0nT3/dDqtvT8Wi7naobtfoCu7mHEn5G6apkOmap2vXLkidVb0n27sqeXqdDQYDEp9mJubs9LptOXz+VztFX01NzfnaoudYsaaTteKuU8na6Fj9joVa/dE3kJeQhZCVrpxUgr2S3efZbn1bjX2S9wbiUSkbunGsUoxdkOg2q87d+5Yzc3N0l6JNKoe0379hGoLVrJTQqfsOm5HN6Z043ut9ks3RzU3N8s+FPkWY79isZiUqeh/y1qSqV12urEdi8Ws2tpal1+ykj0rhGul7Pvvv8fu3bsBLMXWe/r0KUzTlIGpPR4PMpkMdu3aBWApCOvExAQAYHp6GvF4XHqHXq8XJ06ccOSv5qWjrKwMhmHg9u3b8mTehw8fyliCgUBApjUMAxMTE9i+fTtGRkawc+dOh9erK880Tdy/f1+uXty/fx979+4FAPz2t7/F1NTUmuWgy6sYNm7c6PhsGIbDc3/8+DHu3bsn4x/a44WK+KP2J45kMlmwLjMzMzAMQz6pJJNJ7N+/39Efd+/exdGjRwFAphsYGJDByEUMTHs9Nm7cCI/Hg9nZWaRSKRl4XidLAHjy5AkMw0Aul8PLly9lO6qqqrC4uKjtT51uCHlNTU1h//79jmtCN4rpF10ae0B2e0zUwcFBJJNJ+WSXzWbh8/lw4MABx1OlwK6zdtra2mRsSFFne7+PjY2hr6/P8cSvlq3epxt3+XxexmQTQcR1dd63bx8uXryIvr4+GcOy0NhTUXW0pqYGX375JQBIGR4/fhxjY2OOuoug3v39/Thw4AAA5xN1Z2dn0WNN1bX//u//LnqMqrJubGx06Fghu6fDrnuGYaCmpsYRzFk3TkrBfhUaqytht1+5XE6u9AoGBwdRXV0tYxPqxrFqv4qxG4Deft2+fRuXL192xG/U6THtV3H2S7VTwNKYPnnypAwKrut3nf1SV7fU+4q1X7o56ujRozh//jzOnz8vY2kWa7+uXbuGJ0+eyMDl8Xgc33zzDS5cuOBIZ+8XIRu77uns2WpwOWXz8/OuYLyq87S4uIiqqipXZgMDA6irq8PHH39c8P2pQo5YPB53LC2Oj4/jxYsXmJ2dLXjf4uKiVAiRDgCamprQ1dWFbDarvS+fz+PDDz/E1q1bcf78eSwsLGDLli2ONGuVgy6vlYjH47hw4QLOnj27bLoXL144PudyOYejNDw8LP/C4XBRdcnlcvj2229dgVzFtaNHj+Lu3bvyuk6ewuAIxf/xxx8xNTWF+fl55HI5rSxV9u3bh5mZGcTjcdy8edPxnb0/AbduiGsLCwu4du0aALduFJLF2NiYNJrLyaujo0P2T1NTEw4fPoyFhQWcP38ewNL2zqFDh9DU1IRvv/122bYWy/bt23Hu3Dls3boVzc3NBcsuhosXL7qW3XV1XlxchNfrxbNnz2S6QmNWh11Hu7u78a//+q84cuSIw9E8d+6cdNYET548wcLCgjTM3d3dUpe7u7uLHmuqrv3f//1fUffpZK1SyO6Jh1Exmenskpiw7ajjRPA27VcxY1WlWPu1sLDg+KyOY9V+FVMXnf0SsvR4PGhoaJA6VUiPab/enP2KxWKoq6vD7du3tc5fIXT2q9AcJXj58iWA4u3XyZMnHc7g2NgYuru7ZXB0oLDPoaLas9XwK/VCTU0NDMNAIBDAzMwMmpqaXHv+27dvR1dXF9ra2pDNZqXCCi+0oaEBz58/1ypyofcH7MFDPR6PzNu+/57L5eDxeOS/1dXVqK6uxrZt2zAyMoKysjJs3boVXq8XNTU1WFxc1Jbn9/tRXV2NLVu24Nq1a9i/fz/Gx8cRCAQwOzuLbdu2rVkOO3bscOW1ErrAqapHv3PnTpSVlSEej6OtrQ25XA6ffvoprl+/LpXO/k5Fa2trwbpUVVXJ/DOZDObn5xEKhfDgwQN0dnbi2LFjmJ+fl07y2NgYTpw4IZ8AxL25XA6zs7MYHBx0KG5jYyMaGxsxMzODp0+famUJAO+9956jnSKPmZkZVFZWavvT6/W6dMMuQ/Hkr+pGIVnU19fLe1++fKlNE41GcfbsWWm0xSrh9u3bcevWLSkjgWmaLl0R+qtiGIZjnNjl4fF45Oc//vGPBctW79Mh+iSbzSKfzxesc19fHw4fPoxAICBXqHRjT4eqo6LcTZs2YXx8XK4MBAIBdHV1YXp6Wt4rjKHf7wewtFImVqJqamrw+eefFzXWVF37+OOP0dHRseJ9OlmrFLJ7fr/fMYZV3WtqasLY2JhMI2SojpNSsF8VFRXasbocqv2yy1Jw+PBhXLp0Seats/Gq/SrGbujs17/8y78AgLRf33zzDaqrq7V6nMlkaL+wsv1S7ZRgfHxclqP2u25MiTq8fPlSrvbp9EVFtV/ZbFY7R506dUraFfs718XYL8Fy7ziq/WJfabWj2rPV4HLKDh06hPb2dtTU1ABY6sDTp09L5WltbZXLiMJwxmIxZDIZ9PX1oaKiAqZpIhAIIJvNypfbhaFW89IRj8exsLAA0zTlEuRXX32FUCiEhoYGmKaJZDKJcDiMnTt3YmxsTA6IaDSKv/71r1KAuvJqamrQ2dkJ0zRx9uxZbNmyBRcvXgSw1LnXr1/H9u3b1yQHXV5rQRioU6dOYdOmTQCWOjocDsMwDFy6dAmPHj3CkSNHUFNTI1cW7ORyOVddnj59iqtXr2JsbAzl5eVIJpPyvlAohO7ubvT19eHUqVPy6XNmZgaZTAZnzpxBNBpFTU0NJiYm0NPTg48++gg+nw+hUAitra3Yvn271IMXL14gEAhg48aNLlkCwGeffQaPx4P6+no0NTWhv78f+XweVVVV8Hq92Ldvn6s/dbphl9fBgwcBwKUbZWVlWlnY+eCDD1xp+vr6kEwm5VPu8PAwOjs7UVZWhsePH+PUqVPIZDKoqamRxnHbtm0YGhrCe++955C1fStFtN3r9eI//uM/tP3+8uVL/P3vf0c+n5ftUsvW3ffP//zPrnHX19eHhYUFKY9Cdd6/fz8uXbqE8fFxmKaJ6upq7dgrhKqjPp8Po6Oj+Prrr7G4uCjT9fT0yO2hVCqF27dvA1ja3gQgt0DtFDPW1HG7c+fOou5LJpMuWRuGgcHBQUxPT0t7o+alQ9U9r9eLAwcOIBQKwev1oqqqCsFg0DVOKisr37r9AqAdq6vhwYMHUh/tzs7ly5cRCoUwPDyM/v5+1zhW7ZeuDYDTbrS1tbnsVzgcxuXLl+Xku2vXLnR3d2v1mParsP2yt1Fnp8rLy+Hz+aROqf3+4MED15jSzdk6fVnJft29e1c7RzU3N8vVtPr6egB630HHpUuX8N1338nXNlpbWxEOh7F582bZ57r6x+NxTE9PY3BwEJWVlfjhhx9c9mw1MCD5G8IwDIyPj2tXxQh5FxETLPn5E4/HUVdXt+KKBiHvCqVqv3hO2RuisrLS8WInIe86hVa6yc+Puro6VFZWvu1qELJulKr94koZIYQQQkgJwJUyQgghhJASgE4ZIYQQQkgJQKeMvBYY65MQQghZHVqnTI3XpYuVpcZfs8eXssecsx8IK1BjhNlPchZxxHRxNAE4YvLp4lXZTwK3xxsT8bDEmSXis/1kYbVeujhX9rSibHHwrS7dq6CLQyiu2+Nq6eqpxoEr1GY7heKL2dHJUhcrTpwbZMdeJzWmoJov4I5/pstLpwOFYruJPO16p8vXrneFdFjtA139l8Netqp3ulFphD0AABqFSURBVHiEOuwy1MVbKya+oE7HdHpQzHgsRn8IIYQsgxp3SRevSxcrS42/JuJSWZZl+Xw+y7J+in2VTqfld1euXHHEI7OTSCRkjDFdzKh0Om01NzfLeFqF4lVZ1lL8qUgk4ojzJmI32mNS2uObqfXSxbkSMfxEuyYnJ2XMM3u6yclJh8zEfSLP5dKItujiEIp222OOFYq1J+Kvie90ednTFIqPaK+3PU5bLBbTxopLJBJWJBKR96jxw9SYgro+0sU/0+Wl04FCsd3S6bQr5py9/fb22e9RdVjXB2rbRLtU3RTxQkV6nd7p4iuqec3NzVmRSGTZ+JG6OHuqHup0TKcHxYzHQvpDCCGkOFwrZbp4XYA7VpYaf00cMAcAFRUV8r6bN2/iyZMnaG5uRi6Xw61bt+Sp3+r21p///Gf5JK7G0QSWDnc7efKk4x41XpXgwoULOHHiBBYWFuQhglu2bMHCwgLy+bw8kFV8V6he9jhXuVwOoVAIT548wdWrVwEsHQg4MTGBZDKJiYkJBAIBpFIpPH36FE+ePJGrHyKsjFhJUdPkcjkZ8uLIkSPI5XLaOITZbBYLCwvYuXOno71qPK7p6WmMjIygvb0dhmFo2xyPxzEyMoKRkRF5UrIaXywcDmN2dhb9/f0Alg6u7Ovrw8WLF9HU1KSNFffs2TNks1n88MMP2vhhakxBXR/p4p8VikWm0wFVX0W/icMVdTIS11S9U3VY1weqXHT9KVbARkZG5Cqiqne6eIS5XA5HjhzB7OysPFTxyy+/xJkzZ2T5unhrujh7qh7qdEynB8WMR919hBBCisd1or+gqakJ0WgUPT09aGpqwvPnz/HkyROcP38ePT09Mv7ajz/+KK8BSxPn6dOnZT4HDx6UzpE4gXjTpk1oampCc3MzHj58CGBpq0Wc+gssxdEEgI8//hg3btzA0NCQyyEDluJVBQIBR8gZMXGKEAj19fXyBOydO3fixIkT6Ovrw3fffecI9aLWS41ztbi46GiPKEvECiwvL0cul0NjYyNSqRSePXsmw6scO3ZMxud6+vSpK01dXR2y2aws7+nTp9i4caMrDmFHRwcuX74snSTAHY/L4/HI0C91dXUYHx/XtnlsbMxxeJ6IL2Z3qufn5xEOh6WzXFZWJtsqTmhXY8UJB6CxsREXL150nLitw+v1uvpIh72+9rxUHdDpK7B02vx7770nZaXKKBAIuPQOcOvwpUuXXH2gyuX58+eu/hwfH8e5c+cQCAQcYU3sevfVV1+54hE+ffoU9fX1ji3VsrIy12nrIt7azMyMvKbG2VP1UKdjOj0oZjzq7iOEEFI8LqdMF6+rurraFStLjb8GLL3jUlZWpn0PSDgx5eXl+OCDD+DxeBwxqC5evOgIyaHG0VxYWEBXVxdyuRzy+TyCwaAjf/s7M/39/Y6D4cQp+uLdl+rqalmWiK+nq5ca50p3+Ovdu3dRVVWFtrY2pFIpuZIhyhWTr3BwhRzEu3P2NCJsiKhvNBp1xSGcn5/HkSNHMD09jZs3b+Lhw4fLxuMSQVl1bVbRxUe0k81mpWMkYm8mk0lXrLi1oPbRWhA6UCg+ZCGEjAC33tkRfaf2wY0bN1xyOXnypKs/hYNmR9W7QvEV7czOzmJsbAxjY2N48OCBDAGkxlvTxRfU6aGqYzo9KGY8rqQ/hBBClsfllOnideni7anx1zKZDFpaWhAMBnHr1i0ZR21sbAwLCwuYmJhAd3c3Xr58iU8//RSbN2+WjlMmk5ETqfisxtEUk4IIV1RdXY2RkRFXvCoA0lkRiJehRdyrVCqFqakpR3uOHj3qqpcu/lhXV5eMXVZXV4fdu3fLVYTHjx/jiy++wA8//IBr1645Vh+ApXheN2/eRF1dHbZu3epII4I0A0uT/+eff66NQyhWikTYE109gZ9+iJHNZtHT06Nts4jt5fP5cOjQIdy/f98RXwz4Kd5gPp93rIbOzMzg6NGjjr4SseLs2966+GG6mIJqH+nipuryAtwxy3T6am+HWIlSZaTTO8MwXDqs9oGoi10uuv4MBoMyhp5wIFW9KxRPVeQFLDmw4sFHvHyvix9ZKM6eXQ91OqaLk1nMeFTvI4QQsjp4oj8hhBBCSAnAc8oIIYQQQkoAOmWEEEIIISUAnTJCCCGEkBKAThkhhBBCSAlAp4wQQgghpASgU0YIIYQQUgLQKSOEEEIIKQHolBFCCCGElAB0ygghhBBCSgA6ZYQQQgghJQCdMkIIIYSQEoBOGSGEEEJICUCnjBBCCCGkBKBTRgghhBBSAtApI4QQQggpAeiUEUIIIYSUAHTKCCGEEEJKADplhBBCCCElAJ0yQgghhJASgE4ZIYQQQkgJQKeMEEIIIaQEoFNGCCGEEFIC0CkjhBBCCCkB6JQRQgghhJQAdMoIIYQQQkoAOmWEEEIIISUAnTJCCCGEkBKAThkhhBBCSAlAp4wQQgghpASgU0YIIYQQUgLQKSOEEEIIKQGKcsoMw4Df78eGDRuK+guFQq+73oQQQlZJX19fUTY8Ho+/7aoS8otkg2VZ1kqJ/H4/TNNcVcZFZEsIIeQNEgqFMDIyUlRa0zTh9Xpfc40IIXaKWilbrUNGCCHk3eb58+dvuwqE/OLgO2WEEPIL4cCBA2+7CoSQZaBTRgghvxBOnDgBy7Jcf8Fg8G1XjRCC1+SUcYATQgghhKyOX71qBul0GoFAYD3qQgghhBDyi4Xbl4QQQgghJQCdMkIIIYSQEoBOGSGEEEJICUCnjBBCCCGkBKBTRgghhBBSAtApI4QQQggpAeiUEUIIIYSUAHTKCCGEEEJKADplhBBCCCElAJ0yQgghhJASgE4ZIYQQQkgJ8Eadsmw2i82bN2PDhg3av2w2+yarQ37GZDKZgnq2a9eut109QgghxMUbdcoePHiAfD5f8Pvnz5+/wdqQnzMjIyMFv3v06BEMw3iDtSGEEEJW5o06Zc+ePXuTxRFCCCGEvDOU1DtllZWVjs8rbXcW+stkMq58/H6/K100GkUul1u2ToZhOOoQDocd30ejUUeefr9/Vduwav6bN2921D+VSq26/Zs3b3aVk0qlHOX4/X6XnFZLNptFPB5HKBRyyXfz5s0IhUKIx+NFl1Oon3T5dnZ2LrvaVVdX90ptI4QQQt40b90psyxL/nm9Xsd3Q0NDy253FmJxcdGVj2marnS9vb04f/78snmNj4876nDjxo1l05umibt37xZd1++++86Rfz6fx8aNG+XnixcvFp2XPQ+Vqakpx3XTNF1yKpZsNotQKASfz4f29naMjIy45JvP5zEyMoL29na8//77CIVCKzpnhfpJl+8XX3yBPXv2IBQKaZ3gQCDg0C1CCCGk1HnrTtnbpre3d8XVsuXYv3+/69rXX39d9P2qkxcMBl3OaSmRTCZRW1u77DtbOkZGRvD+++8jmUyua31GRkZQW1vLH4kQQgh55/lZOmX2laZi6O/vX3NZjY2NqKiocFx79OhRUY5eJpNxrQy1trauuS4CtT7rRSqVQktLy5pWLwUtLS2vvG2qks/nEY1G1zVPQggh5E3zzjll6XTasS2l+6uurl42D5/P5/j8n//5n6+0Wqa+ZwagqC3Mb775xnVt3759K963UvtfvHhRXMVXQS6Xwx/+8Aftdx0dHZicnJTlz83N4c6dOwgGg9r0v//974suV+3vO3fuoLa21pVuZGRk3Z09Qggh5E3yzjll64Hf70dzc7P8nM/nX2m1TLeF+e233654n7p12dzcDI/Hs+Z6vE7Onz/vWiGrqKjA5OQkuru7HY6wx+NBY2MjhoeHkUgkXHmZprnmbUyRr+pYA8D9+/fXlCchhBBSCvwinTIAOHnypOPzq6yW6bYwb9y4sWx+uq3L3/3ud2sq/02gc6L+8pe/rLgqGQ6HHQ6woBintRAejwfHjx93XV9YWFhznoQQQsjb5hfrlAUCAcf2Wj6fx9DQ0Jrzi0QirmvLbWGudevybZBKpVyrZLW1tWhsbCzqftUBBoDR0dF1qRshhBDyc+EX65QBwLlz5xyf/+u//mvNeR06dMh1bbnVINUpKeWty6mpKde1gwcPFn1/IBBwXcvn86/0i8mZmZk130sIIYSUIu+cU7Znz56CB4v6/f5V5aWulr3Ku07V1dWu95wKbWFms1k8evTIce3o0aNFl7Xc4aqv41eIY2Njrms7duxYVR66l/7XGlYrm81q+4kHxhJCCHmXeeecsuVY6eBRHepqmfp5NejendJtYarXKioqit4KXIk3dV7Xpk2b3kg5dnK5HJLJJBoaGlzbqT6fT7siRwghhLwr/KycsrWwnqtlxW5hqofL6o7UIEvYV0Z//etfo6WlRet8ryXyASGEEFJK/KycMt0xCcWwXqtlxWxh6rYudUdqrJVSjgbwuohEIuu20kgIIYS8Ld45p2y5w2Onp6fXlKdutSyVSgFY/btTK21hrsfW5XIHx/b09KwqrzfFqxzOW4iKigpcuXKlZNtMCCGErIZ3zil7XairY2I7bLXvTh07dsx1zb6F+S5uXepW38bHx1eVh7o6COh/lbkStbW1aG5uRiKRwD/+8Q+cOHFi1XkQQgghpciv3nYFSgWxWiYCbY+MjMAwjFXn4/V6UVtb63BCxPEXuq3Lw4cPv0Kt3wy6A2IfP35c9P1i1dGOLlSSjnQ6zRf4CSGE/CLgSpkNdRtscHBwTfl8/PHHjs/5fB6pVAoPHjxwXH9XfjH44Ycfuq7duHGj6FiTf/zjH13XVBkRQgghv3TolNnwer2Ok/l7e3sxOzu76nx0J/Pfvn3b9UtM3ftnpYjuBwzAkmO10rti0WhUu3XZ1NS0bvVbD9Tz3rLZLLLZrOvst2Qy6fhsGIbrPjU/cX6eyE8tF1iSk/0ewzBceYs/UQf7tXg8DgAIhULa63YMw3Cd6Sfy1bXT7/cjm8268hZty2azrvyi0aj2V8wivSgjFArJ7+LxuKudIp1abjwel/K0/9n7xN72eDyulYXaJlE3XfpQKCRXz/1+v/Y+VT9EfeztVOutrsir8oxGo7IuarmGYTi+X66t64ldbro6q7or+lLorT2dkI2uLwrpuaBQuXbsOqrTGSFHtY9UndbZA/t1e93sedvzVeUmiMfjrvL8fr/27E2/319QZrryRR6FdN3eBlXOqvzFPUKW0WjUpb/2eqjt0tkQYQeWq5s9D7veq31oty86O/cuQKdM4cyZM47PAwMDq85DbGHaSSaTrgDkuiM0SpWuri7XtUePHuE3v/kN+vr6HINInCe2a9cu9Pb2uu6LxWIlGb3A/oMJ8R6dz+dDb2+v9vy3bDaLPXv2wDRNWJYF0zQdBlvk1dDQgHg8Dq/Xi2AwKCeoeDyOWCwm0ycSCViWhXQ6jdbWVgQCAZmHPT/xHqJIb1kW2traZD72H8O0t7e7JjKxOivaJP69d++eTHPv3j3s3bvXcd/w8DAsy0IsFkMsFnulH9cYhoGWlhYMDw9LWVy9elXW2zRNtLS0wDAMhMNhR98APzn1Pp/P9Z243t7eXlRdhLwSicSqDl8W/R6LxXDhwoWi7/P5fI4+am1tLZhWOJ/2/hXlWpaFQCCAw4cP4+rVq/L79vZ2R/r1xjAMeL1eqauq820YhmNcWJblsKM+n6+g02iXixiDdj1vb293lOf1eh0TsXjXVTgKhmGgoaHBkV7kZdedYvH5fK5oLBcuXHA8zPv9fkedvV6vdF4KyW1sbAwNDQ0uB8fv9zuuiXMadTKLRCKOPHU/gNPJ19428d3Vq1elTEVbEomES8/37t3r2FEyDMMhC7VdwoZEIhFZF2HPlqubIBQKIZFISBtml3MgEEBXV5es4+Dg4Jrm77fNO+eULXeiv/grdltNh7paJt4xWy26LUw7Pp9vxWDehVip/Zs3by4qn5VkaZdjOBzWnsqfz+fxySefwOfzyfvEeWK6FbLa2trXOmG8DgpNuhcuXEAsFpMGxOv1SifDzt69e2VYqHPnzskflbS3t2tXDAOBwJoOQtaRTqcdE7agoaFBbqc/ePAAkUjEMdmMjo5i9+7d61IHHWLSFly9etVhQL1eL2KxmOsVgmg06pB5Ifx+PyKRyKpWjHbv3r1mJ7OqqqqodPF4HJFIxPHaQqEyDcPA1atXtTplJxAIwO/3I5lMyvxfJ5WVlfJBJRAIuH6sNDg4iEQi4egjexu6urock/5qSKfTrom2vr5e6vLY2BhisZh0zgYHB9f9vd3jx4879Gp0dFQ+wIjVGbtMzpw5g9HR0YJyMwwD9fX1OHz4sEvfW1tbHQ/EAwMDy7Zny5Yt69LGYgmHw44Hb7u8l2vXWojH46ivr1/2x3HhcBijo6MwDEPK+V3jnXPKimGtjpRAXS1bCysFF3+dW5f5fH5NP1JQUeV4/fr1ol/Q1xEMBlecYN4muu0GAGhra9OulmWz2aJCOw0MDEijLSbQaDSKSCSidS6SyWRRZ+61tLRol/vtFHLw9u7dK1fG7t27Jw2p2Lb1+/2rOvPONE2HQ69bIRX4fD7XpG2apsuA1tXVOdplGAZGR0ddq0aiTHWV68yZM0WvlgHA0NDQqrY7xINIIedax8zMjGsFUodpmtizZ49rVcZerr2u586dw8DAAK5evbou9ms5vF4vTNOU9VDJZrPSORDbrapc7SsadsSDojoGBZWVla5rdXV10lGbnp5GU1OTDA03Ojpa9MQ8MjIidWm58dfU1CQfdJLJJI4fP+74Xh039oc2ndwGBwfR1NSEQCDg6m/xoCDGpU4GQma9vb2Otuq2fJeTr30sdXV1yXoLO3Pv3j3t8UP2FTq7vJdrl46V6qZbARZ1s+tXV1cX9uzZ80rRed4mP0un7FXxer3o6OjQflesUyK2qgrxLm1dCjweDx4+fIhYLIaKioqi7xPniQ0PD5fktqVALIPrHMfVblEBPxlF9enu3Llz6O3tdU2ewsC0tLQUtWKjbpGsht27d0tDKQypWD178OAB6uvrV5Wfuo243GpNLBZb07ZCa2ur6z57ueqEIVa9V1otE5NBMatSdsT2XDqdXvPB1YXw+XyIRCIYGhoqWK5dR8RE2NDQ8EYOkBbbcIlEwjWJer1e+S7u9PS0dntQrGio7+yKLaxC/aCLlxsIBOSv5UX7p6enV/1OUTAYdGyfF0JsmRqGgXPnzrkcct3Dm/1eVW69vb3SUdNFlDl+/DiGhoZw4cIF7Va3kFk6nXb0xXKvNujkax9Ldnsl7Mzo6Kj24e/w4cO4d+8eDMNwOKgrtatQOwrVTadrom72sRAOh9+ZH9HpKGmnrKmpaVWTv0B1hnbs2OHIp6amZsU8Pv/8c9fEUlFRgdOnTxddj1OnTmnr39zcXPTW5alTp4ouT1BRUeFSyLXIspBT2dbWhn/84x9IJBJobm7WOqq1tbWIRCJIJBJ48eJFUeeJqf3k8/mwcePGVdX5ddHW1obR0VE8e/ZMXrNPPjqEcVdXayorK+Hz+VyTp93JWi8Mw9A6DKJs+8QlVs/u3bv3WoO7i0nM7iz5fD6XwR8fH5fOYTweR0NDw6oNbU9Pz4qrZWIyeJXDp3X111FVVeXQoeUQdS921dvr9Ra1CveqxONxWSfddtnhw4fR0tKyojwGBgbQ0tKyqrJbW1u1jkkkEkFXV5dc8T1+/Di6urpW/XCx2nqoTrDdQRREo1G55anKLZlMyvczhWOlPniIlbnR0dEVz7Vcqw4XQ6HVTbESNjg4KO1GMe1aLeFwGF6v97X/iOVtU9LnlHm9Xrx48eKV82lsbFx1Ph6PBz09Pa90WvxaytXlsR6T9HrJUuDxeBAOh9f18Nv1kNfrpKurCy0tLdJZP3z4MPbs2YPdu3dLwxwKhRxPevbVmrfxLl1ra6tre0WgTly7d++WS/6vO0rC8PAwNmzYgLq6OrlKF41Gpeyy2Sza29thmqb8/1rHQSwWQ3t7u+NHFStRV1eHPXv2yD4zDAMjIyPap3jDMGCaJrxer+vYG5Wmpib4fD7ZbsCtM3bS6TT27Nmzro76q9LW1ubYflNXlQKBgGv1ULdyqkZSAZZWLQXpdBrA0gqycN4SiYTW5uzduxe9vb1SjnV1dWhvb39tehwOh3Hu3Dnt+11ii1IQiUSkHqlyi0ajjm22QCAgtysFXq8XDQ0NBd9b1MlMLUvoj5p2NQ854XAYLS0tWpk2NDRgdHRUfjcwMFCwXYVWcoupW09PD/x+P7Zt2wagON1457CKAEDBv3Q6XUwWlmVZViwWc91PyJtgJb3VfW+apuXz+RzpfD6fFYlE5OdEIuG4zzRNmZ/ANE3XZzXfSCRiJRKJZeuvpreXK+oUDAYd15fLM51Ou2QRDAatYDDoarNol2UtjeNYLLam9tjzSqfTjvvUNol6qTIW7RVyVeWfTqddbQDgqLO9vYVsWKG+Fe0opq6RSMRVHyH3QrqoyjMWi8n+Vcu1y3glHVoOVW9Wa9sJIevDBsta+RFM9zKnYDXedjweX3YrQTxtEvKqZDIZvP/++wW/Z6QAQn4iFAq5ftjDMULIm6ek3inTvcRJyFp41V/gEkIIIW+aN+qUiX1gQgghhBDi5JWdMt0BpIXOmNm9e/eyPx3XnUFDyFpY7jiS2tpabssQQggpOV75nbJCFJEtIYSQN0hfXx8++eSTotLynTJC3jwl9U4ZIYSQ18etW7fedhUIIctAp4wQQogLvk5CyJunKKdsvUOIEEIIefMcOHCgqHQdHR08noiQt0BR75QZhoHW1tZl44HZKfXA04QQQgghpUZRThkhhBBCCHm98J0yQgghhJASgE4ZIYQQQkgJQKeMEEIIIaQEoFNGCCGEEFIC0CkjhBBCCCkB6JQRQgghhJQAdMoIIYQQQkoAOmWEEEIIISUAnTJCCCGEkBKAThkhhBBCSAlAp4wQQgghpASgU0YIIYQQUgLQKSOEEEIIKQHolBFCCCGElAB0ygghhBBCSgA6ZYQQQgghJQCdMkIIIYSQEoBOGSGEEEJICUCnjBBCCCGkBKBTRgghhBBSAtApI4QQQggpAeiUEUIIIYSUAHTKCCGEEEJKADplhBBCCCElwP8HJalYhaqDT6wAAAAASUVORK5CYII=;" vertex="1" parent="1">
          <mxGeometry x="360" y="370" width="465.57" height="120" as="geometry" />
        </mxCell>
      </root>
    </mxGraphModel>
  </diagram>
</mxfile>
